<svg
  id="sFR5bVCimH"
  viewBox="0 0 369.94117647058823 106.43804455185287"
  height="106.43804455185287"
  width="369.94117647058823"
  style="
    width: 369.941px;
    height: 106.438px;
    position: absolute;
    top: 50%;
    left: 50%;
    transform: translate(-50%, -50%) scale(0.433042);
    z-index: 0;
    cursor: pointer;
    overflow: visible;
  "
>
  <defs id="SvgjsDefs1077"></defs>
  <g
    id="SvgjsG1078"
    featurekey="4yrtKO-0"
    transform="matrix(1.2251156528169143,0,0,1.2251156528169143,257.82716363106897,-7.4315515312936204)"
    fill="#111111"
  >
    <rect
      xmlns="http://www.w3.org/2000/svg"
      x="34.571"
      y="16.321"
      fill="#111111"
      width="5.716"
      height="5.716"
    ></rect>
    <rect
      xmlns="http://www.w3.org/2000/svg"
      x="34.571"
      y="28.368"
      fill="#111111"
      width="5.716"
      height="5.716"
    ></rect>
    <rect
      xmlns="http://www.w3.org/2000/svg"
      x="34.571"
      y="40.416"
      fill="#111111"
      width="5.716"
      height="5.716"
    ></rect>
    <rect
      xmlns="http://www.w3.org/2000/svg"
      x="34.571"
      y="52.464"
      fill="#111111"
      width="5.716"
      height="5.716"
    ></rect>
    <rect
      xmlns="http://www.w3.org/2000/svg"
      x="80.349"
      y="16.321"
      fill="#111111"
      width="5.716"
      height="5.716"
    ></rect>
    <rect
      xmlns="http://www.w3.org/2000/svg"
      x="80.349"
      y="28.368"
      fill="#111111"
      width="5.716"
      height="5.716"
    ></rect>
    <rect
      xmlns="http://www.w3.org/2000/svg"
      x="80.349"
      y="40.416"
      fill="#111111"
      width="5.716"
      height="5.716"
    ></rect>
    <rect
      xmlns="http://www.w3.org/2000/svg"
      x="80.349"
      y="52.464"
      fill="#111111"
      width="5.716"
      height="5.716"
    ></rect>
    <path
      xmlns="http://www.w3.org/2000/svg"
      fill="#111111"
      d="M52.324,50.356c-0.188,0-0.375-0.048-0.546-0.142c-0.354-0.199-0.572-0.572-0.572-0.975V26.271  c0-0.404,0.218-0.777,0.572-0.975c0.354-0.194,0.786-0.19,1.13,0.024l18.704,11.483c0.332,0.203,0.532,0.563,0.532,0.951  c0,0.389-0.201,0.749-0.532,0.951L52.909,50.19C52.73,50.301,52.527,50.356,52.324,50.356z M53.442,28.268v18.974l15.45-9.488  L53.442,28.268z"
    ></path>
    <path
      xmlns="http://www.w3.org/2000/svg"
      fill="#111111"
      d="M81.978,8.301c4.025,0,7.3,3.275,7.3,7.3V59.3c0,4.025-3.275,7.3-7.3,7.3H38.279c-4.025,0-7.3-3.275-7.3-7.3  V15.601c0-4.025,3.275-7.3,7.3-7.3H81.978 M81.978,6.066H38.279c-5.266,0-9.535,4.269-9.535,9.535V59.3  c0,5.266,4.269,9.535,9.535,9.535h43.699c5.266,0,9.535-4.269,9.535-9.535V15.601C91.512,10.335,87.243,6.066,81.978,6.066  L81.978,6.066z"
    ></path>
    <path
      xmlns="http://www.w3.org/2000/svg"
      fill="#111111"
      d="M74.63,71.069h-2.299l0.225,0.924c0.478,1.957,0.164,3.985-0.884,5.706  c-1.048,1.722-2.704,2.931-4.661,3.409l-38.573,9.386c-1.953,0.474-3.98,0.164-5.706-0.886c-1.722-1.047-2.931-2.704-3.409-4.661  l-9.383-38.57c-0.478-1.957-0.161-3.985,0.886-5.706c1.047-1.722,2.704-2.931,4.661-3.409l11.023-2.682V32.28l-11.551,2.809  c-2.538,0.618-4.683,2.187-6.043,4.419c-1.357,2.23-1.765,4.858-1.148,7.396l9.386,38.57c0.615,2.538,2.184,4.683,4.417,6.043  c1.552,0.943,3.293,1.429,5.065,1.429c0.775,0,1.558-0.094,2.331-0.284l38.573-9.386c2.538-0.615,4.683-2.184,6.04-4.417  c1.36-2.23,1.765-4.858,1.148-7.396L74.63,71.069z"
    ></path>
  </g>
  <g
    id="SvgjsG1079"
    featurekey="Gem1BN-0"
    transform="matrix(3.355318834628063,0,0,3.355318834628063,-2.617148595013447,-14.809574025023107)"
    fill="#111111"
  >
    <path
      d="M0.78 20 l0 -2.32 l1.44 0 l0 -8.58 l-1.44 0 l0 -2.32 l6.34 0 l2.64 7.68 l2.62 -7.68 l6.22 0 l0 2.32 l-1.44 0 l0 8.58 l1.44 0 l0 2.32 l-6.04 0 l0 -2.32 l1.34 0 l0 -7.28 l-3.32 9.6 l-1.8 0 l-3.3 -9.54 l0 7.22 l1.34 0 l0 2.32 l-6.04 0 z M28.458 20.28 c-4.3 0 -6.52 -2.92 -6.52 -6.92 c0 -4.1 2.32 -6.86 6.64 -6.86 c4.08 0 6.54 2.46 6.54 6.7 c0 4.1 -2.32 7.08 -6.66 7.08 z M28.517999999999997 17.5 c1.88 0 3.06 -1.24 3.06 -4.16 c0 -2.88 -1.14 -4.06 -3.02 -4.06 c-1.94 0 -3.08 1.26 -3.08 4.1 c0 2.88 1.16 4.12 3.04 4.12 z M42.956 20 l-4.08 -10.9 l-1 0 l0 -2.32 l5.76 0 l0 2.32 l-1.34 0 l2.32 6.28 l2.3 -6.28 l-1.32 0 l0 -2.32 l5.52 0 l0 2.32 l-1.04 0 l-4.06 10.9 l-3.06 0 z M54.014 20 l0 -2.32 l1.44 0 l0 -8.58 l-1.44 0 l0 -2.32 l6.24 0 l0 2.32 l-1.44 0 l0 8.58 l1.44 0 l0 2.32 l-6.24 0 z M63.732 20 l0 -2.32 l1.48 0 l0 -8.58 l-1.48 0 l0 -2.32 l10.56 0 l0 4.26 l-2.52 0 l0 -1.74 l-3.22 0 l0 2.78 l3.78 0 l0 2.52 l-3.78 0 l0 2.88 l3.34 0 l0 -1.94 l2.52 0 l0 4.46 l-10.68 0 z"
    ></path>
  </g>
  <g
    id="SvgjsG1080"
    featurekey="Gem1BN-1"
    transform="matrix(2.6358565538355485,0,0,2.6358565538355485,-0.843474549702141,45.86693114319459)"
    fill="#111111"
  >
    <path
      d="M3.42 20 l0 -2.32 l1.44 0 l0 -8.38 l-2.02 0 l0 2.04 l-2.52 0 l0 -4.56 l12.44 0 l0 4.56 l-2.52 0 l0 -2.04 l-2.02 0 l0 8.38 l1.44 0 l0 2.32 l-6.24 0 z M22.158 20.28 c-4.3 0 -6.52 -2.92 -6.52 -6.92 c0 -4.1 2.32 -6.86 6.64 -6.86 c4.08 0 6.54 2.46 6.54 6.7 c0 4.1 -2.32 7.08 -6.66 7.08 z M22.218 17.5 c1.88 0 3.06 -1.24 3.06 -4.16 c0 -2.88 -1.14 -4.06 -3.02 -4.06 c-1.94 0 -3.08 1.26 -3.08 4.1 c0 2.88 1.16 4.12 3.04 4.12 z M32.156 20 l0 -2.32 l1.44 0 l0 -8.58 l-1.44 0 l0 -2.32 l4.7 0 l5.44 8.04 l0 -5.72 l-1.44 0 l0 -2.32 l6.08 0 l0 2.32 l-1.44 0 l0 10.9 l-3.28 0 l-5.42 -7.92 l0 5.6 l1.44 0 l0 2.32 l-6.08 0 z M60.074 20 l-0.3 -1.22 c-0.74 0.94 -1.82 1.5 -3.5 1.5 c-4.02 0 -6.2 -2.8 -6.2 -6.96 c0 -4.18 2.22 -6.82 6.68 -6.82 c3.6 0 5.36 1.78 5.36 3.56 c0 0.12 0 0.26 -0.02 0.38 l-3.3 0.68 l0 -0.22 c0 -1.04 -0.7 -1.62 -2.1 -1.62 c-2.78 0 -3.08 2 -3.08 3.96 c0 2.66 0.68 4.26 3.14 4.26 c0.92 0 2.18 -0.28 2.18 -1.1 l0 -0.98 l-2.2 0 l0 -2.32 l6.34 0 l0 2.32 l-0.98 0 l0 4.58 l-2.02 0 z M67.172 14.84 l0 -5.74 l-1.44 0 l0 -2.32 l6.24 0 l0 2.32 l-1.44 0 l0 5.74 c0 1.28 0.4 2.6 2.54 2.6 s2.64 -1.32 2.64 -2.78 l0 -5.56 l-1.44 0 l0 -2.32 l6.12 0 l0 2.32 l-1.44 0 l0 5.56 c0 3.4 -1.68 5.62 -5.86 5.62 c-4.06 0 -5.92 -2.1 -5.92 -5.44 z M83.37 20 l0 -2.32 l1.48 0 l0 -8.58 l-1.48 0 l0 -2.32 l10.56 0 l0 4.26 l-2.52 0 l0 -1.74 l-3.22 0 l0 2.78 l3.78 0 l0 2.52 l-3.78 0 l0 2.88 l3.34 0 l0 -1.94 l2.52 0 l0 4.46 l-10.68 0 z"
    ></path>
  </g>
</svg>
